<svg width="24" height="24" viewBox="0 0 24 24" fill="none" xmlns="http://www.w3.org/2000/svg">
<path fill-rule="evenodd" clip-rule="evenodd" d="M16.629 11.9989L15.429 10.7989L18.514 7.71289H2.57202V5.99889H18.514L15.43 2.91289L16.63 1.71289L21.173 6.25589C21.2542 6.33331 21.3189 6.4264 21.363 6.52954C21.4072 6.63267 21.43 6.7437 21.43 6.85589C21.43 6.96808 21.4072 7.07911 21.363 7.18224C21.3189 7.28538 21.2542 7.37847 21.173 7.45589L16.629 11.9989ZM7.37202 11.9979L8.57202 13.1979L5.48602 16.2839H21.429V17.9979H5.48602L8.57202 21.0839L7.37202 22.2839L2.82902 17.7409C2.74782 17.6635 2.68318 17.5704 2.63901 17.4672C2.59484 17.3641 2.57207 17.2531 2.57207 17.1409C2.57207 17.0287 2.59484 16.9177 2.63901 16.8145C2.68318 16.7114 2.74782 16.6183 2.82902 16.5409L7.37202 11.9979Z" fill="#0E0F0C"/>
<path fill-rule="evenodd" clip-rule="evenodd" d="M16.629 11.9989L15.429 10.7989L18.514 7.71289H2.57202V5.99889H18.514L15.43 2.91289L16.63 1.71289L21.173 6.25589C21.2542 6.33331 21.3189 6.4264 21.363 6.52954C21.4072 6.63267 21.43 6.7437 21.43 6.85589C21.43 6.96808 21.4072 7.07911 21.363 7.18224C21.3189 7.28538 21.2542 7.37847 21.173 7.45589L16.629 11.9989ZM7.37202 11.9979L8.57202 13.1979L5.48602 16.2839H21.429V17.9979H5.48602L8.57202 21.0839L7.37202 22.2839L2.82902 17.7409C2.74782 17.6635 2.68318 17.5704 2.63901 17.4672C2.59484 17.3641 2.57207 17.2531 2.57207 17.1409C2.57207 17.0287 2.59484 16.9177 2.63901 16.8145C2.68318 16.7114 2.74782 16.6183 2.82902 16.5409L7.37202 11.9979Z" fill="black" fill-opacity="0.2"/>
<path fill-rule="evenodd" clip-rule="evenodd" d="M16.629 11.9989L15.429 10.7989L18.514 7.71289H2.57202V5.99889H18.514L15.43 2.91289L16.63 1.71289L21.173 6.25589C21.2542 6.33331 21.3189 6.4264 21.363 6.52954C21.4072 6.63267 21.43 6.7437 21.43 6.85589C21.43 6.96808 21.4072 7.07911 21.363 7.18224C21.3189 7.28538 21.2542 7.37847 21.173 7.45589L16.629 11.9989ZM7.37202 11.9979L8.57202 13.1979L5.48602 16.2839H21.429V17.9979H5.48602L8.57202 21.0839L7.37202 22.2839L2.82902 17.7409C2.74782 17.6635 2.68318 17.5704 2.63901 17.4672C2.59484 17.3641 2.57207 17.2531 2.57207 17.1409C2.57207 17.0287 2.59484 16.9177 2.63901 16.8145C2.68318 16.7114 2.74782 16.6183 2.82902 16.5409L7.37202 11.9979Z" fill="black" fill-opacity="0.2"/>
<path fill-rule="evenodd" clip-rule="evenodd" d="M16.629 11.9989L15.429 10.7989L18.514 7.71289H2.57202V5.99889H18.514L15.43 2.91289L16.63 1.71289L21.173 6.25589C21.2542 6.33331 21.3189 6.4264 21.363 6.52954C21.4072 6.63267 21.43 6.7437 21.43 6.85589C21.43 6.96808 21.4072 7.07911 21.363 7.18224C21.3189 7.28538 21.2542 7.37847 21.173 7.45589L16.629 11.9989ZM7.37202 11.9979L8.57202 13.1979L5.48602 16.2839H21.429V17.9979H5.48602L8.57202 21.0839L7.37202 22.2839L2.82902 17.7409C2.74782 17.6635 2.68318 17.5704 2.63901 17.4672C2.59484 17.3641 2.57207 17.2531 2.57207 17.1409C2.57207 17.0287 2.59484 16.9177 2.63901 16.8145C2.68318 16.7114 2.74782 16.6183 2.82902 16.5409L7.37202 11.9979Z" fill="black" fill-opacity="0.2"/>
<path fill-rule="evenodd" clip-rule="evenodd" d="M16.629 11.9989L15.429 10.7989L18.514 7.71289H2.57202V5.99889H18.514L15.43 2.91289L16.63 1.71289L21.173 6.25589C21.2542 6.33331 21.3189 6.4264 21.363 6.52954C21.4072 6.63267 21.43 6.7437 21.43 6.85589C21.43 6.96808 21.4072 7.07911 21.363 7.18224C21.3189 7.28538 21.2542 7.37847 21.173 7.45589L16.629 11.9989ZM7.37202 11.9979L8.57202 13.1979L5.48602 16.2839H21.429V17.9979H5.48602L8.57202 21.0839L7.37202 22.2839L2.82902 17.7409C2.74782 17.6635 2.68318 17.5704 2.63901 17.4672C2.59484 17.3641 2.57207 17.2531 2.57207 17.1409C2.57207 17.0287 2.59484 16.9177 2.63901 16.8145C2.68318 16.7114 2.74782 16.6183 2.82902 16.5409L7.37202 11.9979Z" fill="black" fill-opacity="0.2"/>
<path fill-rule="evenodd" clip-rule="evenodd" d="M16.629 11.9989L15.429 10.7989L18.514 7.71289H2.57202V5.99889H18.514L15.43 2.91289L16.63 1.71289L21.173 6.25589C21.2542 6.33331 21.3189 6.4264 21.363 6.52954C21.4072 6.63267 21.43 6.7437 21.43 6.85589C21.43 6.96808 21.4072 7.07911 21.363 7.18224C21.3189 7.28538 21.2542 7.37847 21.173 7.45589L16.629 11.9989ZM7.37202 11.9979L8.57202 13.1979L5.48602 16.2839H21.429V17.9979H5.48602L8.57202 21.0839L7.37202 22.2839L2.82902 17.7409C2.74782 17.6635 2.68318 17.5704 2.63901 17.4672C2.59484 17.3641 2.57207 17.2531 2.57207 17.1409C2.57207 17.0287 2.59484 16.9177 2.63901 16.8145C2.68318 16.7114 2.74782 16.6183 2.82902 16.5409L7.37202 11.9979Z" fill="black" fill-opacity="0.2"/>
</svg>
